<?xml version="1.0" standalone="no"?>
<!DOCTYPE svg PUBLIC "-//W3C//DTD SVG 20010904//EN"
 "http://www.w3.org/TR/2001/REC-SVG-20010904/DTD/svg10.dtd">
<svg version="1.0" xmlns="http://www.w3.org/2000/svg"
 width="2084.000000pt" height="2084.000000pt" viewBox="0 0 2084.000000 2084.000000"
 preserveAspectRatio="xMidYMid meet">
<metadata>
Created by potrace 1.14, written by Peter Selinger 2001-2017
</metadata>
<g transform="translate(0.000000,2084.000000) scale(0.100000,-0.100000)"
fill="#000000" stroke="none">
<path d="M9999 20835 c-2 -1 -69 -6 -149 -9 -80 -4 -157 -9 -171 -11 -14 -1
-71 -6 -126 -9 -55 -4 -111 -9 -124 -11 -13 -2 -56 -6 -96 -9 -40 -3 -83 -8
-95 -10 -13 -3 -50 -8 -83 -11 -59 -6 -89 -10 -162 -20 -21 -3 -69 -10 -108
-16 -38 -5 -81 -12 -95 -14 -14 -2 -54 -9 -90 -14 -36 -6 -75 -13 -86 -15 -12
-2 -37 -7 -55 -10 -19 -3 -45 -8 -59 -11 -14 -3 -38 -8 -55 -10 -141 -25 -567
-121 -685 -155 -19 -5 -114 -32 -210 -59 -316 -90 -796 -252 -965 -326 -16 -7
-64 -27 -105 -43 -132 -52 -390 -167 -545 -243 -82 -40 -152 -73 -155 -74 -3
0 -39 -18 -80 -39 -336 -171 -710 -390 -1035 -605 -142 -93 -493 -342 -532
-376 -6 -5 -55 -44 -109 -85 -759 -582 -1531 -1387 -2089 -2177 -58 -81 -108
-153 -113 -158 -47 -57 -328 -505 -457 -730 -91 -158 -302 -556 -310 -585 -1
-3 -24 -52 -52 -110 -70 -146 -100 -212 -177 -395 -38 -88 -72 -169 -77 -180
-74 -174 -293 -799 -314 -899 -3 -11 -11 -40 -19 -65 -32 -98 -136 -497 -149
-571 -3 -14 -12 -52 -20 -85 -9 -33 -18 -73 -21 -90 -3 -16 -16 -88 -31 -160
-37 -191 -50 -260 -60 -330 -3 -23 -7 -50 -9 -60 -7 -36 -17 -99 -20 -130 -2
-16 -7 -52 -11 -80 -4 -27 -8 -61 -10 -75 -2 -14 -6 -43 -9 -65 -3 -22 -8 -67
-11 -100 -4 -33 -8 -73 -10 -90 -6 -49 -19 -204 -30 -345 -27 -348 -27 -1189
0 -1493 3 -39 13 -161 20 -247 4 -44 14 -143 22 -195 3 -22 6 -53 8 -70 5 -52
16 -149 20 -175 6 -31 12 -72 20 -130 9 -62 40 -247 59 -350 9 -47 18 -98 21
-115 3 -16 8 -37 10 -45 2 -8 7 -31 10 -50 3 -19 8 -43 11 -52 3 -9 7 -27 9
-40 3 -13 14 -65 26 -116 11 -52 22 -101 24 -110 2 -9 4 -17 5 -17 1 0 3 -7 5
-16 5 -29 46 -184 81 -314 234 -850 599 -1713 1049 -2475 37 -63 73 -124 79
-135 6 -11 19 -31 27 -45 9 -14 60 -93 113 -177 86 -135 305 -457 341 -501 8
-9 48 -64 91 -122 42 -58 80 -107 83 -110 3 -3 25 -30 48 -60 22 -30 52 -68
65 -84 12 -16 47 -58 77 -95 116 -143 278 -329 436 -501 99 -108 473 -479 584
-580 57 -52 109 -100 115 -105 18 -17 157 -136 216 -185 29 -25 58 -50 64 -55
52 -50 416 -330 596 -459 228 -163 717 -480 800 -519 8 -4 29 -15 45 -26 150
-92 795 -428 795 -414 0 3 6 1 13 -5 16 -14 281 -131 447 -198 74 -30 144 -59
155 -63 23 -11 55 -23 70 -27 6 -1 46 -17 90 -34 179 -70 798 -270 915 -295 8
-2 105 -26 215 -54 171 -43 233 -57 380 -87 11 -2 34 -7 50 -9 17 -3 37 -8 45
-10 8 -3 53 -11 100 -20 47 -8 96 -17 110 -19 75 -15 333 -55 380 -61 30 -3
66 -8 80 -10 14 -3 45 -7 70 -10 25 -3 63 -7 85 -10 40 -5 93 -11 190 -21 28
-3 70 -7 95 -8 25 -2 86 -7 135 -11 440 -33 977 -37 1440 -10 119 7 358 27
475 41 30 3 71 7 90 9 32 3 58 6 165 21 22 3 51 7 65 9 98 13 401 62 440 70
14 3 37 8 52 10 29 4 114 21 322 66 295 62 740 186 1061 294 159 54 475 168
520 189 17 8 55 24 85 36 197 79 648 282 710 319 8 5 62 33 120 62 369 184
870 488 1250 757 130 92 410 299 420 311 3 4 50 42 105 85 55 44 102 82 105
85 3 3 26 23 52 44 26 21 53 43 60 50 7 7 31 27 53 46 229 195 584 535 815
781 176 188 426 483 660 780 160 202 494 694 660 970 446 744 799 1541 1045
2360 57 189 124 436 131 480 3 19 8 38 11 42 2 5 6 16 8 25 2 10 15 68 29 128
14 61 32 144 40 185 14 70 18 87 31 158 12 58 44 239 50 282 8 51 12 74 20
110 3 14 7 48 10 75 3 28 7 59 9 70 2 11 7 45 11 75 3 30 8 66 10 80 2 14 7
52 10 85 4 33 8 71 10 85 2 14 7 61 11 105 4 44 8 94 10 110 1 17 5 73 9 125
3 52 8 115 10 140 17 199 24 843 11 1090 -14 264 -21 372 -31 460 -2 19 -6 69
-10 110 -3 41 -8 86 -10 100 -2 14 -7 54 -11 90 -3 36 -8 80 -10 98 -2 17 -6
47 -8 65 -2 17 -6 48 -10 67 -3 19 -8 53 -11 75 -5 39 -31 200 -41 260 -20
119 -46 261 -49 265 -2 3 -6 22 -9 42 -8 52 -54 261 -72 333 -9 33 -18 70 -20
82 -2 12 -25 98 -50 190 -24 93 -47 176 -49 186 -16 69 -182 575 -243 742
-247 672 -606 1393 -990 1990 -176 273 -446 655 -568 804 -7 9 -35 44 -63 79
-86 109 -272 331 -345 412 -313 349 -649 683 -946 941 -217 189 -405 342 -595
484 -66 50 -121 93 -123 98 -2 4 -8 7 -12 7 -5 0 -40 23 -77 51 -96 72 -526
358 -608 405 -11 6 -67 39 -125 74 -129 77 -143 85 -350 200 -170 95 -629 321
-730 360 -19 7 -39 17 -45 21 -21 14 -366 155 -570 231 -145 54 -438 155 -475
163 -8 2 -27 8 -43 14 -32 12 -280 85 -382 111 -38 10 -106 28 -150 40 -44 12
-89 23 -100 25 -11 3 -33 8 -50 12 -16 4 -32 7 -35 8 -3 0 -27 6 -55 13 -66
16 -257 57 -307 66 -51 9 -145 26 -168 31 -30 6 -265 45 -300 50 -31 4 -107
15 -140 20 -52 8 -268 34 -340 41 -41 3 -88 8 -105 10 -16 2 -57 6 -90 8 -33
3 -100 8 -149 12 -49 3 -110 8 -135 10 -59 5 -1018 14 -1022 9z"/>
</g>
</svg>
